<svg xmlns="http://www.w3.org/2000/svg" version="1.1" xmlns:xlink="http://www.w3.org/1999/xlink" xmlns:svgjs="http://svgjs.dev/svgjs" width="2000" height="1500" viewBox="0 0 2000 1500"><rect width="2000" height="1500" fill="#000000"></rect><g transform="matrix(0.75,0,0,0.75,249.090909090909,524.5502992715361)"><svg viewBox="0 0 396 119" data-background-color="#323a49" preserveAspectRatio="xMidYMid meet" height="601" width="2000" xmlns="http://www.w3.org/2000/svg" xmlns:xlink="http://www.w3.org/1999/xlink"><g id="tight-bounds" transform="matrix(1,0,0,1,0.2400000000000091,0.019721323765281795)"><svg viewBox="0 0 395.52 118.96024116892588" height="118.96024116892588" width="395.52"><g><svg viewBox="0 0 600.402265671777 180.5825200310581" height="118.96024116892588" width="395.52"><g transform="matrix(1,0,0,1,204.882265671777,64.55829092854128)"><svg viewBox="0 0 395.52 51.465938173975545" height="51.465938173975545" width="395.52"><g id="textblocktransform"><svg viewBox="0 0 395.52 51.465938173975545" height="51.465938173975545" width="395.52" id="textblock"><g><svg viewBox="0 0 395.52 51.465938173975545" height="51.465938173975545" width="395.52"><g transform="matrix(1,0,0,1,0,0)"><svg width="395.52" viewBox="0.4 -35.45 278.17 36.2" height="51.465938173975545" data-palette-color="#ffffff"><path d="M32.75 0L27.45 0Q26.6-2.25 25.85-4.42 25.1-6.6 24.3-8.85L24.3-8.85 8.6-8.85 5.45 0 0.4 0Q2.4-5.5 4.15-10.18 5.9-14.85 7.58-19.05 9.25-23.25 10.9-27.08 12.55-30.9 14.35-34.65L14.35-34.65 18.8-34.65Q20.6-30.9 22.25-27.08 23.9-23.25 25.58-19.05 27.25-14.85 29-10.18 30.75-5.5 32.75 0L32.75 0ZM10-12.85L22.9-12.85Q21.3-17.2 19.73-21.28 18.15-25.35 16.45-29.1L16.45-29.1Q14.7-25.35 13.13-21.28 11.55-17.2 10-12.85L10-12.85ZM53.85-4.2L69.85-4.2 69.85 0 49 0 49-34.65 53.85-34.65 53.85-4.2ZM91.34-4.2L107.34-4.2 107.34 0 86.49 0 86.49-34.65 91.34-34.65 91.34-4.2ZM137.09 0L132.24 0 132.24-13.9Q128.79-19.25 125.74-24.45 122.69-29.65 119.99-34.65L119.99-34.65 125.69-34.65Q127.59-30.55 129.94-26.33 132.29-22.1 134.79-18.2L134.79-18.2Q137.24-22.1 139.59-26.33 141.94-30.55 143.89-34.65L143.89-34.65 149.29-34.65Q146.59-29.65 143.54-24.48 140.49-19.3 137.09-14L137.09-14 137.09 0ZM193.88 0L188.58 0Q187.73-2.25 186.98-4.42 186.23-6.6 185.43-8.85L185.43-8.85 169.73-8.85 166.58 0 161.53 0Q163.53-5.5 165.28-10.18 167.03-14.85 168.71-19.05 170.38-23.25 172.03-27.08 173.68-30.9 175.48-34.65L175.48-34.65 179.93-34.65Q181.73-30.9 183.38-27.08 185.03-23.25 186.71-19.05 188.38-14.85 190.13-10.18 191.88-5.5 193.88 0L193.88 0ZM171.13-12.85L184.03-12.85Q182.43-17.2 180.86-21.28 179.28-25.35 177.58-29.1L177.58-29.1Q175.83-25.35 174.26-21.28 172.68-17.2 171.13-12.85L171.13-12.85ZM227.08-14.5L227.08-14.5Q227.88-13.5 229.1-11.88 230.33-10.25 231.63-8.28 232.93-6.3 234.2-4.15 235.48-2 236.38 0L236.38 0 231.08 0Q230.08-1.9 228.9-3.85 227.73-5.8 226.53-7.58 225.33-9.35 224.15-10.9 222.98-12.45 222.03-13.6L222.03-13.6Q221.38-13.55 220.7-13.55 220.03-13.55 219.33-13.55L219.33-13.55 214.98-13.55 214.98 0 210.13 0 210.13-34.15Q212.18-34.65 214.7-34.83 217.23-35 219.33-35L219.33-35Q226.63-35 230.45-32.25 234.28-29.5 234.28-24.05L234.28-24.05Q234.28-20.6 232.45-18.15 230.63-15.7 227.08-14.5ZM219.73-30.75L219.73-30.75Q216.63-30.75 214.98-30.6L214.98-30.6 214.98-17.55 218.43-17.55Q220.93-17.55 222.93-17.8 224.93-18.05 226.3-18.75 227.68-19.45 228.43-20.73 229.18-22 229.18-24.1L229.18-24.1Q229.18-26.05 228.43-27.35 227.68-28.65 226.4-29.4 225.13-30.15 223.4-30.45 221.68-30.75 219.73-30.75ZM268.02 0.75L268.02 0.75Q264.37 0.75 261.37-0.45 258.37-1.65 256.22-3.95 254.07-6.25 252.9-9.63 251.72-13 251.72-17.35L251.72-17.35Q251.72-21.7 253.05-25.08 254.37-28.45 256.62-30.75 258.87-33.05 261.87-34.25 264.87-35.45 268.27-35.45L268.27-35.45Q270.42-35.45 272.15-35.15 273.87-34.85 275.15-34.45 276.42-34.05 277.22-33.65 278.02-33.25 278.32-33.05L278.32-33.05 276.92-29.05Q276.47-29.35 275.62-29.7 274.77-30.05 273.7-30.4 272.62-30.75 271.35-30.98 270.07-31.2 268.77-31.2L268.77-31.2Q266.02-31.2 263.82-30.25 261.62-29.3 260.07-27.5 258.52-25.7 257.7-23.13 256.87-20.55 256.87-17.35L256.87-17.35Q256.87-14.25 257.6-11.7 258.32-9.15 259.77-7.33 261.22-5.5 263.4-4.5 265.57-3.5 268.47-3.5L268.47-3.5Q271.82-3.5 274.02-4.2 276.22-4.9 277.32-5.45L277.32-5.45 278.57-1.45Q278.22-1.2 277.32-0.83 276.42-0.45 275.07-0.1 273.72 0.25 271.92 0.5 270.12 0.75 268.02 0.75Z" opacity="1" transform="matrix(1,0,0,1,0,0)" fill="#ffffff" class="wordmark-text-0" data-fill-palette-color="primary" id="text-0"></path></svg></g></svg></g></svg></g></svg></g><g><svg viewBox="0 0 180.5825200310581 180.5825200310581" height="180.5825200310581" width="180.5825200310581"><g><svg></svg></g><g id="icon-0"><svg viewBox="0 0 180.5825200310581 180.5825200310581" height="180.5825200310581" width="180.5825200310581"><g><path d="M0 90.291c0-49.866 40.425-90.291 90.291-90.291 49.866 0 90.291 40.425 90.292 90.291 0 49.866-40.425 90.291-90.292 90.292-49.866 0-90.291-40.425-90.291-90.292zM90.291 175.941c47.303 0 85.65-38.347 85.65-85.65 0-47.303-38.347-85.65-85.65-85.65-47.303 0-85.65 38.347-85.65 85.65 0 47.303 38.347 85.65 85.65 85.65z" data-fill-palette-color="accent" fill="#ffffff" stroke="transparent"></path><ellipse rx="89.38834741537376" ry="89.38834741537376" cx="90.29126001552905" cy="90.29126001552905" fill="#ffffff" stroke="transparent" stroke-width="0" fill-opacity="1" data-fill-palette-color="accent"></ellipse></g><g transform="matrix(1,0,0,1,42.469828037219656,42.51764946919797)"><svg viewBox="0 0 95.64286395661878 95.54722109266216" height="95.54722109266216" width="95.64286395661878"><g><svg xmlns="http://www.w3.org/2000/svg" xmlns:xlink="http://www.w3.org/1999/xlink" version="1.1" x="0" y="0" viewBox="5 5.045 90 89.91" enable-background="new 0 0 100 100" xml:space="preserve" height="95.54722109266216" width="95.64286395661878" class="icon-cg-0" data-fill-palette-color="quaternary" id="cg-0"><path d="M61.761 43.843c-2.901-9.937-6.143-17.701-9.725-23.287-3.579-5.587-7.869-8.381-12.869-8.381-11.295 0-16.945 13.212-16.945 39.631 0 25.062 5.402 37.595 16.204 37.595 9.384 0 16.328-11.05 20.835-33.149L61.761 43.843zM69.91 7.545h15.739L76.11 50.417c-1.851 8.148-3.117 13.148-3.795 15.002 2.468 11.355 6.051 17.036 10.741 17.036 5.556 0 8.425-3.826 8.611-11.481H95c-0.185 7.157-1.495 12.947-3.935 17.36-2.438 4.415-5.631 6.621-9.582 6.621-3.272 0-5.711-1.327-7.315-3.98-1.605-2.656-3.333-8.088-5.187-16.3-6.418 13.52-16.913 20.28-31.481 20.28-9.938 0-17.839-3.873-23.705-11.619C7.932 75.588 5 64.49 5 50.047c0-14.198 3.21-25.246 9.631-33.149C21.048 8.996 28.767 5.045 37.778 5.045c6.358 0 11.574 2.254 15.648 6.761 4.073 4.506 7.685 11.853 10.834 22.037L69.91 7.545z" fill="#000000" data-fill-palette-color="quaternary"></path></svg></g></svg></g></svg></g></svg></g></svg></g><defs></defs></svg><rect width="395.52" height="118.96024116892588" fill="none" stroke="none" visibility="hidden"></rect></g></svg></g></svg>